<svg id="Capa_2" data-name="Capa 2" xmlns="http://www.w3.org/2000/svg" viewBox="0 0 67.66 21.69"><defs><style>.cls-1{fill:#ffcd05;}</style></defs><path id="Trazado_305" data-name="Trazado 305" d="M41.41,20.16V14.73H45v.44h-3.1v2h2.8v.44h-2.8v2.15h3.17v.44Z" transform="translate(0 0)"/><path id="Trazado_306" data-name="Trazado 306" d="M47.6,18.47l-1.21,1.69h-.55l1.5-2L46,16.26h.56l1.08,1.55,1.11-1.55h.57l-1.41,1.88,1.46,2h-.54l-1.18-1.69Z" transform="translate(0 0)"/><path id="Trazado_307" data-name="Trazado 307" d="M50.44,21.69H50V16.25h.45v.69h0a1.4,1.4,0,0,1,.59-.59,2.5,2.5,0,0,1,.38-.15,1.65,1.65,0,0,1,.38-.05,2.05,2.05,0,0,1,.81.16,1.64,1.64,0,0,1,.55.43,1.7,1.7,0,0,1,.31.65,3.1,3.1,0,0,1,.1.81,2.58,2.58,0,0,1-.11.78,1.84,1.84,0,0,1-.32.66,1.58,1.58,0,0,1-1.31.62,1.84,1.84,0,0,1-.8-.18,1.39,1.39,0,0,1-.6-.55v2.16Zm0-3.47a2.23,2.23,0,0,0,.09.63,1.5,1.5,0,0,0,.26.52,1.15,1.15,0,0,0,.41.35,1.06,1.06,0,0,0,.55.13,1.3,1.3,0,0,0,.61-.14,1.21,1.21,0,0,0,.43-.38,1.64,1.64,0,0,0,.24-.56,2.69,2.69,0,0,0,.06-.69,2.05,2.05,0,0,0-.1-.65,1.44,1.44,0,0,0-.28-.48,1.25,1.25,0,0,0-.42-.3,1.39,1.39,0,0,0-.53-.1,1.18,1.18,0,0,0-.56.13,1.07,1.07,0,0,0-.41.35,1.52,1.52,0,0,0-.25.53,2.44,2.44,0,0,0-.09.66" transform="translate(0 0)"/><path id="Trazado_308" data-name="Trazado 308" d="M55,20.16h-.45v-3.9H55V17h0a1.32,1.32,0,0,1,.49-.65,1.44,1.44,0,0,1,.79-.18v.49a1.34,1.34,0,0,0-.63.12,1,1,0,0,0-.4.35,1.37,1.37,0,0,0-.2.52,3.18,3.18,0,0,0-.06.62v1.91Z" transform="translate(0 0)"/><path id="Trazado_309" data-name="Trazado 309" d="M57.1,18.31a2.47,2.47,0,0,0,.08.6,1.49,1.49,0,0,0,.24.49,1.2,1.2,0,0,0,.41.33,1.13,1.13,0,0,0,.57.12,1.29,1.29,0,0,0,.76-.23,1.07,1.07,0,0,0,.42-.66h.5a2.62,2.62,0,0,1-.22.52,1.36,1.36,0,0,1-.34.41,1.52,1.52,0,0,1-.48.27,2.14,2.14,0,0,1-1.46-.06,1.59,1.59,0,0,1-.56-.43A1.72,1.72,0,0,1,56.7,19a3.09,3.09,0,0,1-.11-.8,2.79,2.79,0,0,1,.12-.81,2.32,2.32,0,0,1,.35-.66,1.5,1.5,0,0,1,.56-.44,1.64,1.64,0,0,1,.75-.16,1.58,1.58,0,0,1,1.27.55,2.4,2.4,0,0,1,.45,1.61h-3Zm2.55-.38a2,2,0,0,0-.08-.54,1.42,1.42,0,0,0-.23-.44,1,1,0,0,0-.39-.29,1.24,1.24,0,0,0-.54-.11,1.23,1.23,0,0,0-.53.11,1.27,1.27,0,0,0-.39.3,1.5,1.5,0,0,0-.26.44,2,2,0,0,0-.13.53h2.55Z" transform="translate(0 0)"/><path id="Trazado_310" data-name="Trazado 310" d="M61.28,18.93a1.13,1.13,0,0,0,.38.71,1.36,1.36,0,0,0,.79.21,1.54,1.54,0,0,0,.43-.06.87.87,0,0,0,.3-.16.84.84,0,0,0,.18-.23.63.63,0,0,0,.06-.27.55.55,0,0,0-.18-.43,1.62,1.62,0,0,0-.46-.22c-.2-.06-.4-.1-.6-.14a2.43,2.43,0,0,1-.6-.17,1.16,1.16,0,0,1-.46-.32.86.86,0,0,1-.18-.6,1,1,0,0,1,.36-.8,1.48,1.48,0,0,1,1-.31,1.73,1.73,0,0,1,1,.28,1.3,1.3,0,0,1,.48.95h-.46a.86.86,0,0,0-.34-.64,1.26,1.26,0,0,0-.71-.18,1.05,1.05,0,0,0-.66.18.62.62,0,0,0-.23.49.49.49,0,0,0,.18.4,1.65,1.65,0,0,0,.46.23,5.26,5.26,0,0,0,.6.15,3,3,0,0,1,.6.19,1.2,1.2,0,0,1,.46.34.85.85,0,0,1,.18.59,1,1,0,0,1-.12.49,1,1,0,0,1-.33.36,1.48,1.48,0,0,1-.5.21,2.73,2.73,0,0,1-.64.07,1.77,1.77,0,0,1-.61-.1,1.46,1.46,0,0,1-.46-.28,1.22,1.22,0,0,1-.29-.42,1.52,1.52,0,0,1-.12-.52h.45Z" transform="translate(0 0)"/><path id="Trazado_311" data-name="Trazado 311" d="M65,18.93a1.13,1.13,0,0,0,.38.71,1.36,1.36,0,0,0,.79.21,1.54,1.54,0,0,0,.43-.06.87.87,0,0,0,.3-.16.84.84,0,0,0,.18-.23.63.63,0,0,0,.06-.27A.55.55,0,0,0,67,18.7a1.62,1.62,0,0,0-.46-.22c-.2-.06-.4-.1-.6-.14a2.43,2.43,0,0,1-.6-.17,1.16,1.16,0,0,1-.46-.32.86.86,0,0,1-.18-.6,1,1,0,0,1,.36-.8,1.48,1.48,0,0,1,1-.31,1.73,1.73,0,0,1,1,.28,1.3,1.3,0,0,1,.48.95h-.46a.86.86,0,0,0-.34-.64,1.26,1.26,0,0,0-.71-.18,1.05,1.05,0,0,0-.66.18.62.62,0,0,0-.23.49.49.49,0,0,0,.18.4,1.65,1.65,0,0,0,.46.23,5.26,5.26,0,0,0,.6.15,3,3,0,0,1,.6.19,1.2,1.2,0,0,1,.46.34.85.85,0,0,1,.18.59,1,1,0,0,1-.12.49,1,1,0,0,1-.33.36,1.48,1.48,0,0,1-.5.21,2.73,2.73,0,0,1-.64.07,1.77,1.77,0,0,1-.61-.1,1.46,1.46,0,0,1-.46-.28,1.1,1.1,0,0,1-.29-.42,1.52,1.52,0,0,1-.12-.52H65Z" transform="translate(0 0)"/><path class="cls-1" d="M14.79,6.29a8.71,8.71,0,0,1-.33,2.44,5.85,5.85,0,0,1-1,2,4.76,4.76,0,0,1-1.73,1.35,6,6,0,0,1-2.5.49H0v-1.8H8.4a5.6,5.6,0,0,0,2.11-.34,3,3,0,0,0,1.29-.95,3.47,3.47,0,0,0,.63-1.43,8.71,8.71,0,0,0,.17-1.77,8.71,8.71,0,0,0-.17-1.77,3.54,3.54,0,0,0-.63-1.43,3,3,0,0,0-1.29-1A5.41,5.41,0,0,0,8.4,1.79H0V0H9.25a6,6,0,0,1,2.5.49,4.55,4.55,0,0,1,1.73,1.34,6,6,0,0,1,1,2,8.47,8.47,0,0,1,.33,2.45Z" transform="translate(0 0)"/><path id="Trazado_313" data-name="Trazado 313" d="M17.28,8.55a3.5,3.5,0,0,0,.15,1,2.37,2.37,0,0,0,.45.86,2.2,2.2,0,0,0,.76.59,2.56,2.56,0,0,0,1.09.22,2.45,2.45,0,0,0,1.42-.38A2.21,2.21,0,0,0,22,9.72h1.9A3.8,3.8,0,0,1,22.37,12a4.08,4.08,0,0,1-1.22.6,4.87,4.87,0,0,1-1.42.2,4.93,4.93,0,0,1-1.9-.35,3.93,3.93,0,0,1-1.4-1A4.1,4.1,0,0,1,15.57,10,6.09,6.09,0,0,1,15.28,8a5.47,5.47,0,0,1,.31-1.84,4.59,4.59,0,0,1,.88-1.53,4.16,4.16,0,0,1,3.22-1.44,4.06,4.06,0,0,1,1.93.45A4.29,4.29,0,0,1,23,4.85a5,5,0,0,1,.82,1.7,5.09,5.09,0,0,1,.13,2h-6.7ZM22,7.23a3.3,3.3,0,0,0-.2-.92,2.43,2.43,0,0,0-.46-.77,2.4,2.4,0,0,0-.7-.53,2,2,0,0,0-.93-.2,2.6,2.6,0,0,0-1,.18A2.23,2.23,0,0,0,18,5.5a2.3,2.3,0,0,0-.49.77,2.56,2.56,0,0,0-.2,1H22Z" transform="translate(0 0)"/><path id="Trazado_314" data-name="Trazado 314" d="M26.5,9.66a1.49,1.49,0,0,0,.67,1.23,2.59,2.59,0,0,0,1.39.35c.22,0,.43,0,.64,0a2.71,2.71,0,0,0,.68-.17,1.25,1.25,0,0,0,.52-.36.84.84,0,0,0,.18-.63.88.88,0,0,0-.28-.63,2,2,0,0,0-.68-.4,7.7,7.7,0,0,0-.94-.26L27.6,8.52a9.55,9.55,0,0,1-1.08-.3,3.29,3.29,0,0,1-.93-.48A2.14,2.14,0,0,1,24.93,7a2.44,2.44,0,0,1-.25-1.15A2,2,0,0,1,25,4.58,2.66,2.66,0,0,1,26,3.77a3.83,3.83,0,0,1,1.23-.43,7.07,7.07,0,0,1,1.3-.12,6.14,6.14,0,0,1,1.35.15A3.7,3.7,0,0,1,31,3.85a2.75,2.75,0,0,1,.86.87A3,3,0,0,1,32.29,6h-2.1a1.25,1.25,0,0,0-.66-1,2.86,2.86,0,0,0-1.19-.25,2.74,2.74,0,0,0-.5,0,2.59,2.59,0,0,0-.55.13,1.23,1.23,0,0,0-.43.28.72.72,0,0,0-.18.48.79.79,0,0,0,.26.6,1.94,1.94,0,0,0,.67.38,7.7,7.7,0,0,0,.94.26l1.09.23a10.87,10.87,0,0,1,1.08.3,3.34,3.34,0,0,1,.94.48,2.21,2.21,0,0,1,.93,1.89,2.38,2.38,0,0,1-.37,1.37,2.91,2.91,0,0,1-1,.92,4.46,4.46,0,0,1-1.31.51,6.89,6.89,0,0,1-1.43.16,6.53,6.53,0,0,1-1.59-.19,3.51,3.51,0,0,1-1.27-.59,3,3,0,0,1-.85-1,3.13,3.13,0,0,1-.33-1.4h2Z" transform="translate(0 0)"/><path id="Trazado_315" data-name="Trazado 315" d="M32.45,3.47H34V.74h2V3.47H37.8V5H36V9.83a3.44,3.44,0,0,0,0,.55.89.89,0,0,0,.12.39.62.62,0,0,0,.29.24,1.37,1.37,0,0,0,.53.08h.42a2,2,0,0,0,.42-.06v1.55l-.65.07c-.22,0-.43,0-.65,0a4.62,4.62,0,0,1-1.28-.15,1.71,1.71,0,0,1-.76-.44,1.5,1.5,0,0,1-.37-.73,4.86,4.86,0,0,1-.11-1V5H32.45Z" transform="translate(0 0)"/><path id="Trazado_316" data-name="Trazado 316" d="M38.61.77h2v1.9h-2Zm0,2.7h2v9.11h-2Z" transform="translate(0 0)"/><path id="Trazado_317" data-name="Trazado 317" d="M41.6,3.47h1.9V4.81l0,0a3.34,3.34,0,0,1,1.2-1.19,3.14,3.14,0,0,1,1.64-.43A3.38,3.38,0,0,1,48.74,4a3,3,0,0,1,.86,2.33V12.6h-2V6.85a2.45,2.45,0,0,0-.46-1.56,1.67,1.67,0,0,0-1.32-.48,2.39,2.39,0,0,0-.92.18,2,2,0,0,0-.69.51,2.57,2.57,0,0,0-.44.77,2.72,2.72,0,0,0-.16.93v5.38h-2V3.47Z" transform="translate(0 0)"/><path id="Trazado_318" data-name="Trazado 318" d="M54.75,12.83a5,5,0,0,1-2-.36,4,4,0,0,1-1.44-1,4.26,4.26,0,0,1-.9-1.52,6.21,6.21,0,0,1,0-3.86A4.13,4.13,0,0,1,52.8,3.57a5.43,5.43,0,0,1,3.89,0,4,4,0,0,1,1.44,1A4.26,4.26,0,0,1,59,6.09,6.21,6.21,0,0,1,59,10a4.13,4.13,0,0,1-2.34,2.52,5,5,0,0,1-1.95.36m0-1.59A2.32,2.32,0,0,0,55.9,11a2.5,2.5,0,0,0,.81-.74,3.21,3.21,0,0,0,.47-1,4.6,4.6,0,0,0,0-2.33,3,3,0,0,0-.47-1,2.47,2.47,0,0,0-.81-.73,2.52,2.52,0,0,0-2.33,0,2.47,2.47,0,0,0-.81.73,3,3,0,0,0-.47,1,4.6,4.6,0,0,0,0,2.33,3,3,0,0,0,.47,1,2.5,2.5,0,0,0,.81.74,2.37,2.37,0,0,0,1.16.28" transform="translate(0 0)"/><path id="Trazado_319" data-name="Trazado 319" d="M61.56,9.66a1.49,1.49,0,0,0,.67,1.23,2.59,2.59,0,0,0,1.39.35c.22,0,.43,0,.64,0a2.71,2.71,0,0,0,.68-.17,1.25,1.25,0,0,0,.52-.36.84.84,0,0,0,.18-.63.88.88,0,0,0-.28-.63,2,2,0,0,0-.68-.4,7.7,7.7,0,0,0-.94-.26l-1.08-.23a9.55,9.55,0,0,1-1.08-.3,3.29,3.29,0,0,1-.93-.48A2.14,2.14,0,0,1,60,7a2.44,2.44,0,0,1-.25-1.15,2,2,0,0,1,.36-1.24A2.66,2.66,0,0,1,61,3.77a3.83,3.83,0,0,1,1.23-.43,7.07,7.07,0,0,1,1.3-.12,6.14,6.14,0,0,1,1.35.15,3.7,3.7,0,0,1,1.16.48,2.75,2.75,0,0,1,.86.87A3,3,0,0,1,67.35,6h-2.1a1.25,1.25,0,0,0-.66-1A2.86,2.86,0,0,0,63.4,4.8a2.74,2.74,0,0,0-.5,0,2.59,2.59,0,0,0-.55.13,1.23,1.23,0,0,0-.43.28.72.72,0,0,0-.18.48.79.79,0,0,0,.26.6,1.94,1.94,0,0,0,.67.38,7.7,7.7,0,0,0,.94.26l1.09.23a10.87,10.87,0,0,1,1.08.3,3.34,3.34,0,0,1,.94.48,2.21,2.21,0,0,1,.93,1.89,2.38,2.38,0,0,1-.37,1.37,2.91,2.91,0,0,1-1,.92,4.46,4.46,0,0,1-1.31.51,6.89,6.89,0,0,1-1.43.16A6.53,6.53,0,0,1,62,12.64a3.51,3.51,0,0,1-1.27-.59,3,3,0,0,1-.85-1,3.13,3.13,0,0,1-.33-1.4h2Z" transform="translate(0 0)"/></svg>